<svg xmlns="http://www.w3.org/2000/svg" viewBox="0 0 64.59 111.11"><defs><style>.cls-1{fill:#231f20;}.cls-2{fill:#fff;}.cls-3{fill:#414042;}</style></defs><title>Asset 1</title><g id="Layer_2" data-name="Layer 2"><g id="Layer_1-2" data-name="Layer 1"><rect class="cls-1" x="1.05" width="62.5" height="111.11" rx="2.51"/><rect class="cls-2" x="3.14" y="3.72" width="58.32" height="103.67" rx="1"/><path class="cls-1" d="M13.13,0H51.46a0,0,0,0,1,0,0V5.54a2,2,0,0,1-2,2H15.14a2,2,0,0,1-2-2V0A0,0,0,0,1,13.13,0Z"/><rect class="cls-2" x="19.29" y="5.02" width="26.01" height="1" rx="0.5"/><circle class="cls-3" cx="32.3" cy="3.27" r="0.75"/><path class="cls-3" d="M1,18.9H1a0,0,0,0,1,0,0v8a0,0,0,0,1,0,0H1a1,1,0,0,1-1-1V19.95A1,1,0,0,1,1,18.9Z"/><path class="cls-3" d="M1,27.49H1a0,0,0,0,1,0,0v8a0,0,0,0,1,0,0H1a1,1,0,0,1-1-1V28.54a1,1,0,0,1,1-1Z"/><path class="cls-3" d="M64.59,18.9h0a0,0,0,0,1,0,0v8a0,0,0,0,1,0,0h0a1,1,0,0,1-1-1V19.95A1,1,0,0,1,64.59,18.9Z" transform="translate(128.14 45.81) rotate(-180)"/></g></g></svg>