<svg xmlns="http://www.w3.org/2000/svg" viewBox="0 0 87.27 116.01"><defs><style>.cls-1{fill:#231f20;}.cls-2{fill:#fff;}.cls-3{fill:#414042;}</style></defs><title>I-Pad</title><g id="Layer_2" data-name="Layer 2"><g id="Layer_1-2" data-name="Layer 1"><rect class="cls-1" x="-13.32" y="15.42" width="114.96" height="86.22" rx="2" transform="translate(102.69 14.37) rotate(90)"/><rect class="cls-2" x="-9.27" y="15.55" width="106.55" height="81.72" rx="1" transform="translate(100.42 12.41) rotate(90)"/><circle class="cls-2" cx="44" cy="112.78" r="2.03"/><path class="cls-3" d="M1,17.13H1a0,0,0,0,1,0,0v8a0,0,0,0,1,0,0H1a1,1,0,0,1-1-1V18.17A1,1,0,0,1,1,17.13Z"/><path class="cls-3" d="M1,25.72H1a0,0,0,0,1,0,0v8a0,0,0,0,1,0,0H1a1,1,0,0,1-1-1V26.76A1,1,0,0,1,1,25.72Z"/><path class="cls-3" d="M72.67-3.48h0a0,0,0,0,1,0,0v8a0,0,0,0,1,0,0h0a1,1,0,0,1-1-1V-2.43A1,1,0,0,1,72.67-3.48Z" transform="translate(72.67 -71.62) rotate(90)"/></g></g></svg>